PathFileType	3	(X/Y/Z)	C:\Users\koon_\Desktop\
DataRate	CameraRate	NumFrames	NumMarkers	Units	OrigDataRate	OrigDataStartFrame	OrigNumFrames
100.0	100.0	12	27	mm	100.0	924	2463	
Frame#	Time	get:LFHD			get:RFHD			get:LBHD			get:RBHD			get:C7			get:T10			get:CLAV			get:STRN			get:RBAK			get:LSHO			get:LUPA			get:LELB			get:LFRA			get:LWRA			get:LWRB			get:LFIN			get:RSHO			get:RUPA			get:RELB			get:RFRA			get:RWRA			get:RWRB			get:RFIN			get:LASI			get:RASI			get:LPSI			get:RPSI			
		X1	Y1	Z1	X2	Y2	Z2	X3	Y3	Z3	X4	Y4	Z4	X5	Y5	Z5	X6	Y6	Z6	X7	Y7	Z7	X8	Y8	Z8	X9	Y9	Z9	X10	Y10	Z10	X11	Y11	Z11	X12	Y12	Z12	X13	Y13	Z13	X14	Y14	Z14	X15	Y15	Z15	X16	Y16	Z16	X17	Y17	Z17	X18	Y18	Z18	X19	Y19	Z19	X20	Y20	Z20	X21	Y21	Z21	X22	Y22	Z22	X23	Y23	Z23	X24	Y24	Z24	X25	Y25	Z25	X26	Y26	Z26	X27	Y27	Z27	
924	9.23	93.772469	1553.3573	-18.724796	-47.402931	1551.951	-18.048719	69.649727	1542.0911	-178.99544	-60.486874	1516.3606	-180.38295	26.463766	1348.1342	-196.22423	19.604618	1141.8328	-263.56079	22.98155	1253.4888	-15.485147	26.643536	1053.0804	4.3410835	-55.205238	1272.4579	-232.35207	164.35417	1336.3479	-114.07114	257.57654	1196.6133	-109.96172	295.85336	1002.0977	-140.74556	286.32504	867.66699	-74.58094	255.20816	786.88092	-66.412811	320.30637	792.27466	-126.74536	320.28674	720.1405	-59.571869	-116.27859	1325.1504	-111.92255	-209.75424	1102.6091	-96.726837	-232.36789	993.13086	-166.39677	-234.33173	937.61865	-84.276756	-226.27121	786.59863	-66.155731	-264.48752	787.85242	-138.41823	-286.00961	720.53088	-65.721893	148.27664	882.539	-59.737949	-119.93885	869.55121	-66.679787	59.024715	945.04156	-277.14478	-31.433207	943.30737	-280.4465
925	9.24	93.47467	1553.1326	-16.645235	-47.679016	1551.6039	-15.922343	69.36393	1541.8948	-176.9429	-60.786575	1516.0476	-178.36826	26.178696	1347.8748	-193.80646	19.364431	1142.1782	-262.24356	22.723261	1252.8979	-13.544127	26.558121	1052.4435	5.3535943	-55.523163	1272.6124	-230.40395	164.10335	1336.1741	-111.99025	257.37335	1196.464	-108.1111	295.94016	1002.0996	-139.45337	286.24194	867.65295	-73.494324	255.12383	786.52661	-66.326256	320.31091	792.2149	-125.58076	320.13727	720.12756	-58.390911	-116.47579	1324.9917	-109.93028	-209.82826	1102.4641	-95.060738	-232.17418	993.17523	-165.22821	-234.41969	937.41791	-83.179283	-226.24168	786.37207	-65.220879	-264.55978	787.74646	-137.47221	-285.96002	720.25763	-64.926941	148.16948	882.23077	-59.640244	-120.0369	869.22223	-66.572014	58.653595	945.23193	-276.96683	-31.88328	943.52942	-280.21933
926	9.25	93.171089	1552.9055	-14.511502	-47.974583	1551.2462	-13.932015	69.084251	1541.7344	-174.83429	-61.032261	1515.7323	-176.17111	25.90061	1347.8613	-191.81586	19.061243	1142.3833	-260.87607	22.547344	1252.3942	-11.812572	26.362444	1051.7964	6.4866743	-55.82634	1272.7505	-228.55713	163.83636	1335.9486	-109.91437	257.22861	1196.2955	-106.39371	296.02032	1002.0318	-138.21596	286.08572	867.60736	-72.228539	254.96576	786.50836	-65.116241	320.28784	792.15814	-124.18678	319.94592	720.11383	-56.966766	-116.63358	1324.8521	-107.78027	-209.9584	1102.2373	-93.303444	-232.38115	993.12585	-163.65453	-234.50842	937.15125	-81.89563	-226.19249	786.12006	-64.253822	-264.59854	787.63708	-136.58618	-285.89496	719.96832	-64.16507	148.09883	881.95404	-59.555527	-120.12839	868.80981	-66.178307	58.246853	945.41498	-276.72144	-32.318752	943.62885	-279.82977
927	9.26	92.837975	1552.6462	-12.58884	-48.285782	1550.9063	-11.865917	68.78772	1541.4858	-172.91797	-61.283497	1515.45	-174.34502	25.682762	1347.8682	-189.84741	18.809994	1142.7141	-259.6275	22.35899	1251.8334	-10.047695	26.224155	1051.1958	7.5498176	-56.184887	1272.8668	-226.68283	163.58665	1335.7584	-107.87019	257.10422	1196.1523	-104.69907	296.16269	1001.9742	-136.87187	285.93814	867.53027	-70.933136	254.79376	786.4422	-63.772633	320.27026	792.02722	-122.77209	319.78586	720.14087	-55.376965	-116.81355	1324.6909	-105.68745	-210.09106	1102.0153	-91.620117	-232.88263	993.0387	-161.96796	-234.49188	936.86401	-80.547607	-226.12981	785.85101	-63.353016	-264.71707	787.47046	-135.48228	-285.82574	719.65466	-63.243763	147.97495	881.69983	-59.449028	-120.18953	868.02997	-66.490776	57.817352	945.61957	-276.53635	-32.736752	943.79633	-279.52426
928	9.27	92.582924	1552.4192	-10.638878	-48.584476	1550.5518	-9.9785976	68.509872	1541.2489	-170.88954	-61.534271	1515.1185	-172.42502	25.470343	1347.8436	-187.95192	18.45256	1142.8896	-258.11935	22.257917	1251.2561	-8.1088266	26.135504	1050.5802	8.5875111	-56.557732	1272.9906	-224.75575	163.36307	1335.4906	-105.91729	256.96725	1196.0184	-103.03704	296.32043	1001.886	-135.51395	285.84918	867.46155	-69.487778	254.64127	786.40686	-62.341717	320.21378	791.86346	-121.14278	319.66724	720.17865	-53.620918	-117.00105	1324.4972	-103.58163	-210.24042	1101.7953	-89.795876	-233.14136	992.98163	-160.45477	-234.55981	936.61865	-79.343414	-226.09361	785.57526	-62.444706	-264.81973	787.30536	-134.40266	-285.75717	719.38232	-62.31601	147.90573	881.47198	-59.297554	-120.26377	867.57404	-66.373596	57.369301	945.7132	-276.25153	-33.177013	943.88348	-279.23187
929	9.28	92.242432	1552.1597	-8.7073479	-48.834179	1550.1647	-8.023427	68.191879	1540.9724	-169.00517	-61.78405	1514.7815	-170.56512	25.347994	1348.0355	-186.28795	18.075485	1143.13	-256.78961	22.076342	1250.7178	-6.3749242	26.041855	1049.939	9.7256355	-56.870983	1273.0894	-222.92924	163.07584	1335.234	-104.0434	256.87369	1195.8427	-101.46748	296.51236	1001.7914	-134.06979	285.74817	867.38538	-68.025841	254.48578	786.43707	-60.724945	320.30447	791.72754	-119.50084	319.51279	720.25195	-51.751526	-117.13599	1324.2833	-101.39098	-210.36259	1101.4946	-88.049294	-233.04236	993.01135	-159.33281	-234.56732	936.32587	-78.061333	-226.02527	785.33875	-61.501106	-264.89771	787.1593	-133.40092	-285.66571	719.0835	-61.193684	147.84338	881.19727	-59.286297	-120.37723	867.19647	-66.219139	56.985813	945.8139	-276.09412	-33.564499	943.93463	-278.94263
930	9.29	91.971756	1551.8621	-6.8246403	-49.139973	1549.7513	-6.1047177	67.912193	1540.6581	-167.14638	-62.064953	1514.3717	-168.64038	24.858677	1347.5903	-183.94417	17.745621	1143.2692	-255.38179	21.993925	1250.1349	-4.6348801	25.891649	1049.2385	10.720918	-57.245258	1273.0992	-221.01018	162.83008	1334.952	-102.18547	256.75482	1195.6737	-99.823021	296.69168	1001.688	-132.59012	285.61838	867.31683	-66.400215	254.35999	786.35223	-59.168015	320.33627	791.58783	-117.63583	319.39377	720.23907	-49.871628	-117.27689	1324.0314	-99.22847	-210.48553	1101.2053	-86.310707	-233.67386	992.87891	-157.65532	-234.59978	936.06543	-76.896416	-226.00461	785.00702	-60.447239	-264.9631	787.06775	-132.47989	-285.64499	718.82336	-60.413921	147.70947	880.8454	-59.329113	-120.46332	866.74518	-65.869789	56.608177	945.80542	-275.93954	-33.976635	943.82013	-278.65256
931	9.3	91.759438	1551.489	-5.0822239	-49.386806	1549.2948	-4.2575364	67.602814	1540.2313	-165.33035	-62.370953	1513.8743	-166.71486	24.583902	1347.3833	-181.95288	17.341362	1143.2866	-253.88113	21.916487	1249.5197	-2.792382	25.915146	1048.5635	11.844181	-57.64772	1273.0685	-219.01054	162.58153	1334.6378	-100.36406	256.67175	1195.4956	-98.217026	296.84842	1001.5303	-131.0206	285.57278	867.2356	-64.758049	254.22624	786.25848	-57.494621	320.39569	791.37799	-115.79675	319.26028	720.20087	-47.800667	-117.43049	1323.7347	-97.103775	-210.63904	1100.8835	-84.596245	-233.90993	992.7821	-156.18591	-234.6087	935.74664	-75.379761	-225.96764	784.69824	-59.439453	-265.0498	786.82703	-131.43159	-285.62372	718.47955	-59.52528	147.55296	880.43756	-59.374138	-120.61922	866.31342	-65.760162	56.270538	945.73596	-275.86908	-34.352554	943.59149	-278.39429
932	9.31	91.476524	1551.064	-3.3099749	-49.631104	1548.7542	-2.4874475	67.303223	1539.6996	-163.58702	-62.667854	1513.2115	-164.80145	24.486336	1347.4335	-180.54793	16.977219	1143.3594	-252.69193	21.856653	1248.8579	-1.1868455	25.887999	1047.8389	12.92664	-58.02356	1272.9935	-217.19731	162.33113	1334.2861	-98.556129	256.5126	1195.28	-96.616463	296.98511	1001.3694	-129.47261	285.50897	867.11011	-63.032887	254.17679	786.21503	-55.672024	320.43335	791.20563	-113.85831	319.18201	720.15881	-45.764107	-117.51424	1323.3621	-95.071571	-210.70839	1100.5295	-82.862526	-234.12236	992.55951	-154.67731	-234.67509	935.42688	-74.320641	-225.96288	784.37225	-58.660023	-265.23102	786.48743	-130.39984	-285.62476	718.07312	-58.66589	147.44897	879.97064	-59.4813	-120.74566	865.79755	-65.512642	55.913368	945.49915	-275.7915	-34.725903	943.36298	-278.25195
933	9.32	91.225235	1550.5736	-1.6016471	-49.884117	1548.1212	-0.73507494	67.026283	1539.0374	-161.83484	-62.900917	1512.408	-163.16022	24.18025	1347.0302	-178.60789	16.617699	1143.2194	-251.19925	21.854044	1248.1226	0.66650444	25.961115	1047.0344	13.952581	-58.361515	1272.7129	-215.2621	162.07985	1333.8676	-96.817406	256.36218	1194.9917	-94.943718	297.08286	1001.1779	-127.86359	285.45694	867.02087	-61.196053	254.1675	786.06757	-53.833748	320.4834	790.95593	-111.90932	319.10602	720.06775	-43.613113	-117.62565	1322.8727	-92.902756	-210.80727	1100.0956	-81.202293	-234.33983	992.35175	-153.28357	-234.69597	934.87579	-72.487679	-226.05116	783.84326	-57.65519	-265.34265	786.23071	-129.50415	-285.65439	717.51495	-57.773731	147.44713	879.38373	-59.580067	-120.86683	865.26917	-65.402672	55.535362	945.0979	-275.64142	-35.078644	942.97369	-278.08063
934	9.33	91.022484	1550.0413	-0.043273069	-50.10648	1547.4519	0.93104464	66.701355	1538.2766	-160.2346	-63.223705	1511.5188	-161.30794	23.71604	1346.2253	-176.19135	16.257202	1143.0702	-249.91173	21.789608	1247.2767	2.4258978	26.00631	1046.1317	15.129988	-58.706699	1272.3619	-213.33145	161.80777	1333.3906	-95.101204	256.25211	1194.6257	-93.396416	297.19037	1000.871	-126.14346	285.46622	866.77283	-59.37746	254.15045	785.82599	-51.879913	320.6131	790.66864	-109.85052	319.1152	719.84253	-41.454418	-117.72411	1322.2671	-90.732826	-210.87009	1099.5558	-79.543495	-234.19673	991.97699	-152.02449	-234.82159	934.3855	-71.574883	-226.12596	783.24658	-56.775127	-265.52182	785.70801	-128.45905	-285.66605	716.87787	-56.839119	147.4106	878.66083	-59.739452	-120.94154	864.64594	-65.153839	55.226524	944.6026	-275.52005	-35.416595	942.52728	-277.87418
935	9.34	90.786507	1549.4425	1.5920815	-50.249802	1546.7622	2.6759353	66.431702	1537.4482	-158.55946	-63.491745	1510.5546	-159.5743	23.497026	1345.7583	-174.49266	15.951928	1142.7552	-248.52675	21.830414	1246.3428	4.0495558	26.098299	1045.1167	16.245483	-58.976288	1271.9225	-211.53072	161.6227	1332.7988	-93.388412	256.16046	1194.152	-91.766876	297.2471	1000.4891	-124.40353	285.44626	866.44366	-57.470066	254.18466	785.53192	-49.808887	320.67697	790.26599	-107.75237	319.12717	719.57568	-39.2472	-117.81093	1321.564	-88.705849	-211.00571	1098.8739	-77.871544	-234.75323	991.49078	-150.52676	-234.92235	933.67352	-70.429573	-226.19714	782.4552	-55.952255	-265.71097	785.12604	-127.52596	-285.724	716.10986	-55.990452	147.33424	877.92981	-59.732124	-121.00048	863.94977	-64.932945	54.904518	944.1416	-275.5419	-35.784466	942.02728	-277.63647
